<svg xmlns="http://www.w3.org/2000/svg" version="1.1" xmlns:xlink="http://www.w3.org/1999/xlink" xmlns:svgjs="http://svgjs.dev/svgjs" width="1500" height="1500" viewBox="0 0 1500 1500"><rect width="1500" height="1500" fill="#000000"></rect><g transform="matrix(0.6666666666666666,0,0,0.6666666666666666,249.39393939393938,435.99032258064517)"><svg viewBox="0 0 396 248" data-background-color="#ffffff" preserveAspectRatio="xMidYMid meet" height="939" width="1500" xmlns="http://www.w3.org/2000/svg" xmlns:xlink="http://www.w3.org/1999/xlink"><g id="tight-bounds" transform="matrix(1,0,0,1,0.2400000000000091,0.4000000000000057)"><svg viewBox="0 0 395.52 247.2" height="247.2" width="395.52"><g><svg></svg></g><g><svg viewBox="0 0 395.52 247.2" height="247.2" width="395.52"><g transform="matrix(1,0,0,1,75.54432,79.83199254268902)"><svg viewBox="0 0 244.43135999999998 87.53601491462194" height="87.53601491462194" width="244.43135999999998"><g><svg viewBox="0 0 244.43135999999998 87.53601491462194" height="87.53601491462194" width="244.43135999999998"><g><svg viewBox="0 0 244.43135999999998 87.53601491462194" height="87.53601491462194" width="244.43135999999998"><g><svg viewBox="0 0 244.43135999999998 87.53601491462194" height="87.53601491462194" width="244.43135999999998"><g id="textblocktransform"><svg viewBox="0 0 244.43135999999998 87.53601491462194" height="87.53601491462194" width="244.43135999999998" id="textblock"><g><svg viewBox="0 0 244.43135999999998 48.113366513833995" height="48.113366513833995" width="244.43135999999998"><g transform="matrix(1,0,0,1,0,0)"><svg width="244.43135999999998" viewBox="-0.1 -37.1 189.73999999999998 37.35" height="48.113366513833995" data-palette-color="#2e30ff"><path d="M21.1-35L21.1-10.75Q21.1-5.5 18.18-2.63 15.25 0.25 10.2 0.25L10.2 0.25Q7.05 0.25 4.45-1.07 1.85-2.4-0.1-4.75L-0.1-4.75 2.7-9.05Q4.45-7.2 6.4-6.2 8.35-5.2 10.15-5.2L10.15-5.2Q12.5-5.2 13.83-6.68 15.15-8.15 15.15-10.9L15.15-10.9 15.15-29.95 3.05-29.95 3.05-35 21.1-35ZM40.6-26.75L40.6-26.75Q44.7-26.75 47.82-25.05 50.95-23.35 52.7-20.33 54.45-17.3 54.45-13.3L54.45-13.3Q54.45-9.3 52.7-6.25 50.95-3.2 47.82-1.5 44.7 0.2 40.6 0.2L40.6 0.2Q36.5 0.2 33.35-1.5 30.2-3.2 28.45-6.25 26.7-9.3 26.7-13.3L26.7-13.3Q26.7-17.3 28.45-20.33 30.2-23.35 33.35-25.05 36.5-26.75 40.6-26.75ZM40.6-22.1L40.6-22.1Q38.2-22.1 36.35-20.98 34.5-19.85 33.47-17.85 32.45-15.85 32.45-13.25L32.45-13.25Q32.45-10.6 33.47-8.6 34.5-6.6 36.35-5.48 38.2-4.35 40.6-4.35L40.6-4.35Q43-4.35 44.82-5.48 46.65-6.6 47.67-8.6 48.7-10.6 48.7-13.25L48.7-13.25Q48.7-15.85 47.67-17.85 46.65-19.85 44.82-20.98 43-22.1 40.6-22.1ZM75.75-26.75L75.75-26.75Q79.55-26.75 82.4-25.05 85.25-23.35 86.85-20.3 88.45-17.25 88.45-13.2L88.45-13.2Q88.45-9.25 86.87-6.23 85.3-3.2 82.47-1.5 79.65 0.2 75.85 0.2L75.85 0.2Q72.2 0.2 69.62-1.4 67.05-3 65.7-6.03 64.35-9.05 64.35-13.2L64.35-13.2Q64.35-17.5 65.7-20.53 67.05-23.55 69.62-25.15 72.2-26.75 75.75-26.75ZM74.55-22.2L74.55-22.2Q72.2-22.2 70.35-21.05 68.5-19.9 67.47-17.93 66.45-15.95 66.45-13.35L66.45-13.35Q66.45-10.75 67.47-8.72 68.5-6.7 70.35-5.58 72.2-4.45 74.55-4.45L74.55-4.45Q76.95-4.45 78.77-5.6 80.6-6.75 81.62-8.75 82.65-10.75 82.65-13.35L82.65-13.35Q82.65-15.9 81.62-17.9 80.6-19.9 78.77-21.05 76.95-22.2 74.55-22.2ZM60.7 0L60.7-37.1 66.45-37.1 66.45 0 60.7 0ZM111.69-24.15L109.59-20.1Q107.84-21.15 105.77-21.78 103.69-22.4 101.94-22.4L101.94-22.4Q100.24-22.4 99.14-21.75 98.04-21.1 98.04-19.6L98.04-19.6Q98.04-18.35 99.07-17.63 100.09-16.9 101.69-16.4 103.29-15.9 105.09-15.35 106.89-14.8 108.52-13.93 110.14-13.05 111.14-11.55 112.14-10.05 112.14-7.6L112.14-7.6Q112.14-4.9 110.72-3.18 109.29-1.45 106.97-0.63 104.64 0.2 101.94 0.2L101.94 0.2Q99.04 0.2 96.14-0.75 93.24-1.7 91.24-3.5L91.24-3.5 93.29-7.4Q95.04-5.85 97.54-4.98 100.04-4.1 102.19-4.1L102.19-4.1Q103.44-4.1 104.42-4.42 105.39-4.75 105.97-5.4 106.54-6.05 106.54-7.1L106.54-7.1Q106.54-8.5 105.54-9.3 104.54-10.1 102.94-10.63 101.34-11.15 99.54-11.68 97.74-12.2 96.17-13.05 94.59-13.9 93.59-15.35 92.59-16.8 92.59-19.2L92.59-19.2Q92.59-21.9 93.99-23.58 95.39-25.25 97.62-26.03 99.84-26.8 102.39-26.8L102.39-26.8Q104.89-26.8 107.39-26.1 109.89-25.4 111.69-24.15L111.69-24.15ZM116.74-13.3L116.74-17.1 129.04-17.1 129.04-13.3 116.74-13.3ZM133.99-4.15L147.34-18Q149.34-20.05 150.56-22.1 151.79-24.15 151.79-25.7L151.79-25.7Q151.79-27.9 150.16-29.13 148.54-30.35 145.64-30.35L145.64-30.35Q143.29-30.35 140.66-29.2 138.04-28.05 135.79-26.05L135.79-26.05 133.39-30.3Q136.34-32.6 139.66-33.93 142.99-35.25 146.44-35.25L146.44-35.25Q149.89-35.25 152.46-34.18 155.04-33.1 156.49-31.13 157.94-29.15 157.94-26.5L157.94-26.5Q157.94-23.9 156.09-20.98 154.24-18.05 151.34-15.05L151.34-15.05 139.94-3.2 139.14-5 159.64-5 159.64 0 133.99 0 133.99-4.15ZM189.64-8.7L161.89-8.7 161.89-12.9 173.78-35 179.49-35 166.99-11.55 165.64-13.7 189.64-13.7 189.64-8.7ZM178.94 0L178.94-22.2 184.44-22.2 184.44 0 178.94 0Z" opacity="1" transform="matrix(1,0,0,1,0,0)" fill="#ffffff" class="wordmark-text-0" data-fill-palette-color="primary" id="text-0"></path></svg></g></svg></g><g transform="matrix(1,0,0,1,0,59.471777626953866)"><svg viewBox="0 0 244.43135999999998 28.06423728766808" height="28.06423728766808" width="244.43135999999998"><g transform="matrix(1,0,0,1,0,0)"><svg width="244.43135999999998" viewBox="3.9 -37.35 435.01000000000005 49.95" height="28.06423728766808" data-palette-color="#2e30ff"><path d="M28.7 0L22.25 0 14.85-13.9Q12.55-13.8 10.75-13.8L10.75-13.8 9.35-13.8 9.35 0 3.9 0 3.9-36.75 12.25-36.75Q18.6-36.75 22.7-34.13 26.8-31.5 26.8-25.6L26.8-25.6Q26.8-21.9 25.08-19.23 23.35-16.55 19.95-15.1L19.95-15.1 28.7 0ZM9.35-18.35L12.9-18.35Q17.8-18.35 19.63-20.48 21.45-22.6 21.45-25.55L21.45-25.55Q21.45-32.1 12.7-32.1L12.7-32.1 9.35-32.1 9.35-18.35ZM44.9 0.5Q40.8 0.5 38.05-1.13 35.3-2.75 34-5.48 32.7-8.2 32.7-11.45L32.7-11.45Q32.7-15.1 34.22-17.85 35.75-20.6 38.45-22.08 41.15-23.55 44.55-23.55L44.55-23.55Q49.85-23.55 52.42-20.63 55-17.7 55-12.4L55-12.4Q55-11.05 54.85-9.6L54.85-9.6 38.35-9.6Q38.9-6.55 40.52-5.2 42.15-3.85 45.05-3.85L45.05-3.85Q47.45-3.85 49-4.25 50.55-4.65 51.85-5.35L51.85-5.35 53.5-1.5Q52.25-0.7 50.1-0.1 47.95 0.5 44.9 0.5L44.9 0.5ZM38.35-13.35L49.75-13.35Q49.8-16.45 48.4-17.73 47-19 44.4-19L44.4-19Q39.15-19 38.35-13.35L38.35-13.35ZM70.8 0.5Q67.69 0.5 65.07-0.98 62.45-2.45 60.87-5.18 59.3-7.9 59.3-11.55L59.3-11.55Q59.3-15.15 60.67-17.85 62.05-20.55 64.59-22.05 67.14-23.55 70.59-23.55L70.59-23.55Q72.59-23.55 74.34-22.85 76.09-22.15 77.3-21.13 78.5-20.1 78.89-19.1L78.89-19.1 79-22.95 84.14-22.95 84.14 0 79.05 0 78.94-4.05Q78.09-2.25 75.84-0.88 73.59 0.5 70.8 0.5L70.8 0.5ZM71.69-4Q74.55-4 76.5-5.98 78.44-7.95 78.44-11.15L78.44-11.15 78.44-11.5Q78.44-13.65 77.55-15.35 76.64-17.05 75.09-18 73.55-18.95 71.69-18.95L71.69-18.95Q68.5-18.95 66.75-16.88 65-14.8 65-11.5L65-11.5Q65-8.15 66.72-6.08 68.44-4 71.69-4L71.69-4ZM101.54 0.5Q98.44 0.5 95.82-0.98 93.19-2.45 91.62-5.18 90.04-7.9 90.04-11.55L90.04-11.55Q90.04-17 93.09-20.28 96.14-23.55 101.34-23.55L101.34-23.55Q104.24-23.55 106.64-22.13 109.04-20.7 109.89-18.7L109.89-18.7 109.64-22.6 109.64-36.75 114.94-36.75 114.94 0 109.79 0 109.69-4.05Q108.84-2.25 106.59-0.88 104.34 0.5 101.54 0.5L101.54 0.5ZM102.44-4.05Q105.29-4.05 107.24-6.03 109.19-8 109.19-11.2L109.19-11.2 109.19-11.55Q109.19-13.7 108.29-15.4 107.39-17.1 105.84-18.05 104.29-19 102.44-19L102.44-19Q99.24-19 97.49-16.93 95.74-14.85 95.74-11.55L95.74-11.55Q95.74-8.2 97.47-6.13 99.19-4.05 102.44-4.05L102.44-4.05ZM123.74 12.6L128.69 0.7 119.19-22.95 125.29-22.95 130.19-8.35 131.29-4.8 132.39-8.35 137.54-22.95 143.44-22.95 129.34 12.6 123.74 12.6ZM148.89-10.15L148.89-14.95 166.04-14.95 166.04-10.15 148.89-10.15ZM192.14 0.35Q186.44 0.35 182.26-2.2 178.09-4.75 175.89-9.03 173.69-13.3 173.69-18.45L173.69-18.45Q173.69-23.9 176.06-28.2 178.44-32.5 182.74-34.93 187.04-37.35 192.49-37.35L192.49-37.35Q194.94-37.35 197.06-36.83 199.19-36.3 200.59-35.63 201.99-34.95 202.44-34.5L202.44-34.5 199.99-29.5Q196.94-32.2 192.04-32.2L192.04-32.2Q188.59-32.2 185.79-30.5 182.99-28.8 181.39-25.65 179.79-22.5 179.79-18.35L179.79-18.35Q179.79-14.55 181.21-11.45 182.64-8.35 185.39-6.55 188.14-4.75 191.94-4.75L191.94-4.75Q196.34-4.75 200.44-7.25L200.44-7.25 202.09-2.5Q200.99-1.5 198.06-0.58 195.14 0.35 192.14 0.35L192.14 0.35ZM207.98 0L207.98-36.75 213.33-36.75 213.33 0 207.98 0ZM221.33 0L221.33-22.95 226.93-22.95 226.93 0 221.33 0ZM224.08-27.25Q222.53-27.25 221.48-28.3 220.43-29.35 220.43-30.9L220.43-30.9Q220.43-32.3 221.48-33.3 222.53-34.3 224.08-34.3L224.08-34.3Q225.58-34.3 226.63-33.3 227.68-32.3 227.68-30.9L227.68-30.9Q227.68-29.35 226.66-28.3 225.63-27.25 224.08-27.25L224.08-27.25ZM245.13 0.5Q241.73 0.5 239-0.98 236.28-2.45 234.68-5.23 233.08-8 233.08-11.75L233.08-11.75Q233.08-15.3 234.55-17.98 236.03-20.65 238.7-22.1 241.38-23.55 244.88-23.55L244.88-23.55Q247.53-23.55 249.45-22.88 251.38-22.2 252.48-21.2L252.48-21.2 250.08-16.85Q247.98-18.95 245.33-18.95L245.33-18.95Q242.13-18.95 240.45-17 238.78-15.05 238.78-11.8L238.78-11.8Q238.78-8.1 240.5-6.05 242.23-4 245.33-4L245.33-4Q246.88-4 248.35-4.45 249.83-4.9 250.63-5.5L250.63-5.5 252.58-1.7Q251.48-0.85 249.5-0.18 247.53 0.5 245.13 0.5L245.13 0.5ZM269.78-13.35L278.48 0 272.13 0 267.48-7.5 266.18-10.05 263.18-6.8 263.18 0 257.98 0 257.98-36.75 263.13-36.75 263.13-16.6 263.03-12.7 271.78-22.95 278.43-22.95 269.78-13.35ZM284.72-10.15L284.72-14.95 301.87-14.95 301.87-10.15 284.72-10.15ZM322.17-36.8L322.72-36.8 340.42 0 333.97 0 330.82-7.2 313.97-7.2 310.82 0 304.57 0 322.17-36.8ZM322.42-26.15L320.22-21.15 316.22-12.25 328.62-12.25 324.67-21.1 322.52-26.15 322.42-26.15ZM343.27 12.15L343.27-22.95 348.47-22.95 348.47-18.7Q351.22-23.55 357.07-23.55L357.07-23.55Q361.92-23.55 364.92-20.48 367.92-17.4 367.92-11.6L367.92-11.6Q367.92-8 366.44-5.25 364.97-2.5 362.44-1 359.92 0.5 356.82 0.5L356.82 0.5Q353.92 0.5 351.79-0.53 349.67-1.55 348.47-3.45L348.47-3.45 348.52 12.15 343.27 12.15ZM355.57-4.05Q358.82-4.05 360.57-6.13 362.32-8.2 362.32-11.45L362.32-11.45Q362.32-14.85 360.59-16.88 358.87-18.9 355.57-18.9L355.57-18.9Q353.77-18.9 352.19-18.03 350.62-17.15 349.69-15.53 348.77-13.9 348.77-11.75L348.77-11.75 348.77-11.4Q348.77-9.25 349.69-7.58 350.62-5.9 352.17-4.98 353.72-4.05 355.57-4.05L355.57-4.05ZM373.76 12.15L373.76-22.95 378.97-22.95 378.97-18.7Q381.72-23.55 387.56-23.55L387.56-23.55Q392.42-23.55 395.42-20.48 398.42-17.4 398.42-11.6L398.42-11.6Q398.42-8 396.94-5.25 395.47-2.5 392.94-1 390.42 0.5 387.31 0.5L387.31 0.5Q384.42 0.5 382.29-0.53 380.17-1.55 378.97-3.45L378.97-3.45 379.01 12.15 373.76 12.15ZM386.06-4.05Q389.31-4.05 391.06-6.13 392.81-8.2 392.81-11.45L392.81-11.45Q392.81-14.85 391.09-16.88 389.37-18.9 386.06-18.9L386.06-18.9Q384.26-18.9 382.69-18.03 381.12-17.15 380.19-15.53 379.26-13.9 379.26-11.75L379.26-11.75 379.26-11.4Q379.26-9.25 380.19-7.58 381.12-5.9 382.67-4.98 384.22-4.05 386.06-4.05L386.06-4.05ZM404.61 0L404.61-36.75 409.96-36.75 409.96 0 404.61 0ZM419.21 12.6L424.16 0.7 414.66-22.95 420.76-22.95 425.66-8.35 426.76-4.8 427.86-8.35 433.01-22.95 438.91-22.95 424.81 12.6 419.21 12.6Z" opacity="1" transform="matrix(1,0,0,1,0,0)" fill="#ffffff" class="slogan-text-1" data-fill-palette-color="secondary" id="text-1"></path></svg></g></svg></g></svg></g></svg></g></svg></g></svg></g></svg></g><path d="M173.06 73.832L173.06 12.965 394.329 12.965 394.329 234.235 173.06 234.235 173.06 173.368 177.399 173.368 177.399 229.896 389.99 229.896 389.99 17.304 177.399 17.304 177.399 73.832Z" fill="#ffffff" stroke="transparent" data-fill-palette-color="tertiary"></path></svg></g><defs></defs></svg><rect width="395.52" height="247.2" fill="none" stroke="none" visibility="hidden"></rect></g></svg></g></svg>